<?xml version="1.0" encoding="UTF-8" standalone="no"?>
<!-- Created with Inkscape (http://www.inkscape.org/) -->

<svg
   xmlns:dc="http://purl.org/dc/elements/1.1/"
   xmlns:cc="http://creativecommons.org/ns#"
   xmlns:rdf="http://www.w3.org/1999/02/22-rdf-syntax-ns#"
   xmlns:svg="http://www.w3.org/2000/svg"
   xmlns="http://www.w3.org/2000/svg"
   xmlns:sodipodi="http://sodipodi.sourceforge.net/DTD/sodipodi-0.dtd"
   xmlns:inkscape="http://www.inkscape.org/namespaces/inkscape"
   width="500"
   height="500"
   viewBox="0 0 132.29167 132.29166"
   version="1.1"
   id="svg4651"
   inkscape:version="0.92.4 (unknown)"
   sodipodi:docname="jesso.svg">
  <defs
     id="defs4645" />
  <sodipodi:namedview
     id="base"
     pagecolor="#ffffff"
     bordercolor="#666666"
     borderopacity="1.0"
     inkscape:pageopacity="0.0"
     inkscape:pageshadow="2"
     inkscape:zoom="1"
     inkscape:cx="289.28571"
     inkscape:cy="253.21429"
     inkscape:document-units="mm"
     inkscape:current-layer="layer1"
     showgrid="false"
     units="px"
     inkscape:window-width="1299"
     inkscape:window-height="713"
     inkscape:window-x="67"
     inkscape:window-y="27"
     inkscape:window-maximized="1" />
  <metadata
     id="metadata4648">
    <rdf:RDF>
      <cc:Work
         rdf:about="">
        <dc:format>image/svg+xml</dc:format>
        <dc:type
           rdf:resource="http://purl.org/dc/dcmitype/StillImage" />
        <dc:title></dc:title>
      </cc:Work>
    </rdf:RDF>
  </metadata>
  <g
     inkscape:label="Layer 1"
     inkscape:groupmode="layer"
     id="layer1"
     transform="translate(0,-164.70834)">
    <path
       style="fill:#aa0000;fill-opacity:1;fill-rule:nonzero;stroke:none;stroke-width:0.3230013"
       id="path4725"
       d="m 8.6949822,192.89949 c 1.5955108,-0.88812 3.0175988,-1.95292 4.4956548,-2.9587 0.533112,-0.36468 -0.144498,0.0312 0.148337,0.56962 0.109807,0.20189 0.634538,0.17731 0.655753,0.39712 0.01741,0.18042 -0.398959,0.16607 -0.592567,0.25753 -0.600337,0.28363 -1.34901,0.6816 -1.924545,0.98132 -0.858227,0.43572 -1.6686955,0.9246 -2.464505,1.42984 -0.1621543,0.10295 -0.3270083,0.20316 -0.4873887,0.30791 -0.2362976,0.15432 -0.2428482,0.22441 -0.156297,0.0338 -0.4262312,-0.30501 -0.9812098,-0.52304 -1.2786921,-0.91502 -0.089294,-0.11765 0.2375441,-0.19862 0.3611764,-0.29393 0.6043059,-0.4659 1.2067347,-0.93011 1.8815422,-1.32857 2.4126412,-1.03959 3.1054572,1.1565 3.1791152,2.57409 0.01861,0.35823 -0.02247,0.71685 -0.0337,1.07527 -0.219193,1.32966 -0.634692,2.69687 -1.995097,3.56126 0.292747,-0.55201 -0.192857,0.43109 -1.2216143,-1.10877 -0.082144,-0.12294 0.2541265,-0.19037 0.391484,-0.27542 0.5722643,-0.35432 1.2071653,-0.65091 1.8110803,-0.96801 0.804673,-0.37715 1.268777,-1.03752 1.976075,-1.49718 0.479271,0.2499 1.048361,0.41322 1.437812,0.74969 0.140085,0.12103 0.02079,0.33162 0.0049,0.49669 -0.08193,0.84881 -0.420833,1.64848 -0.796189,2.43607 -0.29489,-0.24164 -0.111329,0.838 -0.411133,0.72661 -0.54107,-0.20104 -1.151466,-0.45129 -1.412367,-0.88323 -0.139106,-0.23031 0.307344,-0.44874 0.477047,-0.6653 0.837079,-1.06815 1.71932,-2.11284 2.576031,-3.17082 1.401091,-1.73617 2.834663,-3.45622 4.307421,-5.15348 0.2894,-0.33352 0.560258,-0.67907 0.882637,-0.99229 0.166553,-0.16183 0.324145,-0.47708 0.577085,-0.42597 0.654577,0.13226 1.133551,0.59078 1.700326,0.88616 -1.207595,3.6611 -3.434084,7.05171 -5.678097,10.35965 -0.266732,0.34834 -0.523066,0.702 -0.800196,1.04501 -0.04865,0.0602 -1.099435,1.29512 -1.381619,1.22383 -1.788566,-0.45193 -1.522867,-0.43381 -1.279583,-1.361 1.750123,-3.40355 4.241978,-6.53032 6.86431,-9.53408 -0.762003,1.58209 0.847432,-1.40393 1.168488,-1.02016 0.455261,0.54418 1.099955,1.11958 1.057475,1.77516 -0.05187,0.80059 -0.857734,1.44669 -1.312439,2.15956 -1.638617,2.56901 -2.602076,3.90033 -4.392138,6.481 -2.038571,2.90287 -4.189771,5.75801 -6.561996,8.4925 -0.367889,0.42407 -0.7372101,0.84855 -1.1445194,1.24849 -0.1680484,0.16501 -0.3168229,0.48421 -0.5761026,0.44101 -0.6346027,-0.1058 -1.1077388,-0.54259 -1.6616082,-0.81388 0.1285245,-0.23818 0.2434,-0.48146 0.3855763,-0.71453 0.3737393,-0.61267 1.4329922,-2.1178 1.7515985,-2.56509 1.8158134,-2.54916 3.7590744,-5.02571 5.7237834,-7.50133 1.397277,-1.70813 2.789974,-3.41952 4.223285,-5.10829 0.132262,-0.15582 0.174732,-0.48705 0.406783,-0.46187 2.542732,0.27589 1.740638,0.7826 1.272301,2.12145 -3.384467,7.60647 -7.945767,14.8518 -12.9928488,21.8213 -0.5784338,-2.03072 -1.1101067,2.6099 -1.989046,2.09103 -2.595947,-1.53249 -0.4401657,-3.03044 0.6702592,-4.74979 3.3516074,-5.18954 4.2688706,-6.28631 8.1576196,-11.64864 3.979156,-5.13275 5.464798,-7.18539 9.606663,-12.0358 1.144904,-1.34076 2.299638,-2.67825 3.542693,-3.96089 0.686656,-0.70853 1.38367,-1.42737 2.238666,-2.00459 0.280081,-0.18909 0.901128,-0.48777 1.0604,-0.22266 0.529278,0.88099 0.366676,1.93547 0.550014,2.90321 -5.407025,10.06215 -12.038013,19.66379 -18.918522,29.11012 -0.669936,0.86584 -1.31431,1.7449 -2.009805,2.59753 -0.342672,0.4201 -0.683218,0.84653 -1.1028763,1.21841 -0.050268,0.0445 -0.1620347,-0.007 -0.2151315,-0.0504 -0.4795766,-0.38258 -1.2092684,-0.6774 -1.3616125,-1.20738 -0.040875,-0.14218 1.4973565,-2.38702 1.5155402,-2.4142 3.9362741,-5.64012 7.9536491,-11.24446 12.3324261,-16.67112 1.253574,-1.55357 2.567725,-3.07477 3.851588,-4.61216 1.34646,-1.50873 3.828105,-4.40978 5.535939,-5.96497 0.327386,-0.29812 0.676989,-0.95344 1.121681,-0.78034 2.907958,1.13187 0.105838,3.62431 -0.590253,4.63661 -1.029333,1.49694 -2.133873,2.95942 -3.20081,4.43913 -4.078979,5.3966 -8.197831,10.77504 -12.434372,16.09242 -2.160061,2.71114 -4.347632,5.40717 -6.697177,8.01409 -0.2441667,-0.53115 -1.2446409,-0.75383 -1.3088393,-1.31303 -0.05315,-0.46297 0.6051474,-0.79154 0.9092659,-1.18654 0.3474744,-0.45131 0.7037232,-0.89826 1.0455074,-1.35238 1.759041,-2.33726 1.400523,-1.91378 3.325428,-4.84985 3.651527,-5.71967 7.54466,-11.33677 11.801896,-16.7789 2.506838,-3.20455 5.18619,-6.45759 8.108071,-9.44061 0.809179,-0.82611 1.72149,-1.58296 2.582234,-2.37443 0.801356,-0.49814 2.326025,-1.98611 3.293655,0.004 0.299304,0.61574 -0.312883,1.3017 -0.564297,1.93125 -0.388536,0.97286 -0.862908,1.92293 -1.351564,2.86597 -2.027719,3.91329 -2.857633,5.05069 -5.353893,9.06138 -5.940116,8.84574 -12.556021,17.39534 -19.534754,25.73075 -0.852313,0.91124 -1.579613,2.4024 -2.8722745,0.34015 -0.1456901,-0.23242 0.2532702,-0.47943 0.3955267,-0.71322 0.086304,-0.14185 0.9769908,-1.48743 1.0819848,-1.64637 5.204991,-8.25871 10.79275,-16.36103 16.820902,-24.24891 1.628178,-2.13046 3.333951,-4.22174 5.000926,-6.33261 1.60419,-1.85832 4.437385,-5.32905 6.549662,-7.25044 0.321809,-0.29273 0.702405,-0.90742 1.136554,-0.73295 2.808286,1.12861 0.773492,3.3352 0.05577,4.6813 -0.771575,1.4471 -1.638673,2.85985 -2.45801,4.28978 -6.592504,10.65189 -14.547034,20.69689 -21.949409,30.98388 -1.798219,2.60641 -3.508413,5.25474 -4.881599,8.02686 -0.218022,0.44013 -0.420929,0.88533 -0.608549,1.33449 -0.08065,0.19307 -0.04864,0.42478 -0.19556,0.59052 -0.07164,0.0808 -0.04555,-0.19525 -0.06832,-0.29287 -0.430394,-0.11127 -1.1325576,0.007 -1.291179,-0.3338 -0.1749497,-0.37649 0.4177272,-0.73012 0.6272473,-1.09494 0.6496447,-1.13117 1.2867117,-2.2671 1.9502457,-3.39301 3.194581,-5.4207 4.86549,-8.18515 8.559247,-13.73647 1.885023,-2.833 3.862763,-5.6252 5.794144,-8.43782 4.067836,-5.50402 5.981989,-8.31889 10.29486,-13.40267 0.997228,-1.1755 1.988388,-2.36345 3.155805,-3.43214 0.346785,-0.31747 1.035907,-1.0254 1.331907,-0.67608 2.390783,2.82135 -1.098942,6.1634 -2.37003,8.34885 -8.736516,13.77905 -18.700549,27.01474 -28.361342,40.37683 -0.4651856,0.6607 -0.9071062,1.33242 -1.3955552,1.98209 -0.2929367,0.38963 -1.1038348,-0.61286 -1.0593154,-1.06712 0.055094,-0.56211 0.7853223,-0.93354 1.1501961,-1.41452 0.5483709,-0.72286 1.0914418,-1.44924 1.5886405,-2.19579 0.923781,-1.38706 1.781913,-2.80193 2.672869,-4.20288 8.32239,-13.21358 16.731147,-26.47394 27.263973,-38.65679 1.302704,-1.50678 2.739277,-2.93532 4.108915,-4.40298 -0.884595,0.0857 3.49489,-3.31347 4.466489,-2.15435 1.280885,1.52811 -0.688618,5.00606 -1.251364,6.12539 -2.114165,4.20522 -3.572449,6.18679 -6.281663,10.38959 -7.255921,10.65239 -16.370664,20.35546 -24.65234,30.47918 -1.106471,1.35257 -2.163751,2.73092 -3.245626,4.09637 -1.356553,1.83015 -2.435608,3.22108 -3.6447529,5.03841 -0.1668155,0.25074 -0.1031323,0.79639 -0.4544944,0.77093 -0.3612756,-0.0262 -0.1805311,-0.57322 -0.3551967,-0.82964 -0.7623089,-1.11908 -1.2252215,0.62805 0.5342897,-1.87675 7.1979913,-12.34723 14.7094343,-24.58521 23.0804733,-36.44738 1.717517,-2.4338 3.535574,-4.82055 5.303359,-7.23083 3.738006,0.0787 2.812718,-6.22189 6.242872,-7.04597 0.818851,-0.19673 2.088721,0.44635 2.143138,1.13408 0.113993,1.44065 -1.06312,2.7601 -1.728977,4.10007 -2.669474,5.37201 -5.61858,9.99325 -8.77567,15.24226 -5.440551,8.78384 -11.045068,17.5018 -16.702399,26.19592 -2.487059,3.82208 -4.937574,7.69061 -7.677093,11.40254 -0.419306,-0.3442 -1.127796,-0.56161 -1.257914,-1.03261 -0.133948,-0.48486 0.33515,-0.95928 0.581884,-1.41445 1.060622,-1.95654 5.831594,-9.68877 6.352856,-10.50798 5.232868,-8.22384 7.030621,-10.66414 12.813625,-19.0739 7.110849,-9.80351 14.420838,-19.60196 23.360856,-28.41673 1.224085,-1.20694 6.620633,-6.40315 9.61491,-7.3824 0.851529,-0.27848 1.834651,0.0858 2.751978,0.1288 0.145186,1.11498 0.607344,2.23243 0.435557,3.34495 -0.394897,2.55741 -3.632598,8.63017 -4.726189,10.52932 -2.847635,4.94523 -5.922918,9.3275 -9.514865,13.95494 -1.808007,2.32922 -3.763348,4.58191 -5.645024,6.87285 -1.872455,2.0885 -3.720551,4.19135 -5.617365,6.2655 -6.56298,7.17656 -3.548815,3.67568 -9.717225,10.35526 -2.184415,2.36544 -4.546711,4.97996 -6.504691,7.4961 -0.700336,0.89997 -1.318813,1.83974 -1.978219,2.75961 -0.942473,1.54909 -1.268568,1.89804 -1.838248,3.36035 -0.05734,0.14718 0.07122,0.52639 -0.09892,0.45588 -0.250196,-0.10372 -0.168846,-0.43852 -0.320405,-0.62965 -1.267555,-1.59846 -1.499017,1.21075 0.937889,-3.34342 8.472435,-15.16977 17.619943,-30.13726 28.350131,-44.36264 1.812294,-2.40261 3.774629,-4.72949 5.661945,-7.09423 -0.322047,5.88902 3.520667,-6.5417 5.523558,-5.00084 2.995801,2.30477 -1.25606,6.81562 -2.151138,8.17914 -3.807106,5.79961 -7.310222,10.18323 -11.613881,15.84655 -9.950229,12.71511 -21.00334,24.88454 -30.055692,38.0491 -0.795443,1.15678 -1.524206,2.3426 -2.28631,3.5139 -0.289625,0.54618 -0.475354,1.1364 -0.868877,1.63854 -0.113966,0.14542 0.0079,-0.34465 -0.01087,-0.51602 -0.04202,-0.3847 -0.347341,-0.79121 -0.171177,-1.15031 0.610953,-1.24539 1.653778,-2.32315 2.451431,-3.49786 3.638802,-5.35884 7.19899,-10.75219 10.812763,-16.12203 8.51491,-12.40151 17.460751,-24.62353 27.202563,-36.42789 3.760964,-4.55723 9.471481,-11.2169 14.161848,-15.60253 1.04621,-0.97824 2.307102,-1.79259 3.460654,-2.68888 0.773473,0.44749 2.344075,0.57498 2.320416,1.3425 -0.0627,2.03422 -7.650919,12.2114 -7.728343,12.31607 -2.354626,3.18331 -4.817381,6.31412 -7.28542,9.44106 -5.222202,6.61636 -11.845138,14.63924 -17.195781,21.17061 -7.130575,8.72034 -14.27044,17.44281 -20.943062,26.39864 -1.27793,1.71522 -2.513882,3.45075 -3.735259,5.19255 -1.841377,2.62598 -1.501043,2.02665 -2.315681,3.62308 -0.253888,-0.47874 -0.889054,-0.92578 -0.761668,-1.43623 0.263731,-1.05685 1.255466,-1.90409 1.837421,-2.87458 1.096833,-1.82912 2.128389,-3.68322 3.198068,-5.52277 3.749134,-6.44745 5.717267,-9.91259 9.840765,-16.40763 1.875383,-2.95396 3.84707,-5.86751 5.770606,-8.80126 3.707797,-5.12045 5.906238,-8.39864 9.910803,-13.14 0.935127,-1.10718 1.910852,-2.19664 2.989675,-3.21527 0.418819,-0.39543 0.89509,-1.22402 1.479851,-1.00484 3.486115,1.30664 -0.589178,5.80605 -0.957897,6.50161 -1.454599,2.31191 -2.869995,4.64016 -4.363796,6.93576 -3.676736,5.65021 -8.844025,13.17486 -12.663593,18.6604 -3.412383,4.90075 -9.653868,13.72414 -13.286144,18.69245 -1.736166,2.37476 -3.529146,4.7222 -5.293719,7.08332 -1.260737,1.58626 -2.4765094,3.19635 -3.7822099,4.75877 -0.6494615,0.77715 -1.2930956,1.56671 -2.080147,2.25619 -0.1126204,0.0987 -0.4457701,0.13019 -0.4988138,0.003 -1.6016782,-3.838 -0.2883599,-3.99531 2.1258897,-8.40203 1.5404947,-2.81184 3.194394,-5.58239 4.791592,-8.37359 6.421918,-10.80409 13.407927,-21.40061 21.257763,-31.578 3.552769,-4.6062 8.009379,-9.99584 12.323352,-14.29371 1.170881,-1.16651 2.519615,-2.20919 3.779423,-3.31378 0.678808,-0.324 1.295524,-1.19027 2.036419,-0.97202 3.718614,1.09547 0.336022,5.33675 -0.187633,6.32651 -1.177265,2.22516 -2.49104,4.40248 -3.816274,6.57283 -3.497512,5.72792 -7.804161,12.16856 -11.488966,17.77443 -5.626796,8.42561 -11.278123,16.84152 -17.061031,25.19834 -1.174838,1.69775 -2.347228,3.39685 -3.559409,5.07742 -2.110606,2.92616 -0.923217,3.27265 -2.554911,2.58513 -0.05089,-1.3714 -0.587247,-2.78771 -0.152681,-4.1142 0.859227,-2.62272 9.982767,-17.83725 10.402804,-18.51374 5.875068,-9.46201 11.558796,-17.83154 18.378866,-26.89717 3.138537,-4.17193 6.513723,-8.22501 9.770583,-12.33751 4.451645,-4.97897 9.431428,-11.08339 14.905012,-15.59779 1.057887,-0.87249 2.114358,-2.24219 3.62658,-2.20175 1.180496,0.0316 2.131347,1.40477 2.012016,2.35255 -0.257557,2.04567 -1.862337,3.83542 -3.021669,5.66669 -1.797359,2.83907 -3.890652,5.54981 -5.83598,8.3247 -12.731501,17.02546 -27.121724,33.18312 -40.687365,49.77053 -1.745271,2.13403 -3.443738,4.29273 -5.165607,6.43909 -1.728857,2.38747 -3.632291,4.79822 -5.041789,7.34179 -0.170355,0.30743 0.07255,0.95796 -0.344617,0.9712 -0.445139,0.0141 -0.69937,-0.58192 -0.65526,-0.93946 0.05594,-0.4534 0.64596,-0.75004 0.913223,-1.15146 0.689697,-1.03586 1.30295,-2.10369 1.954425,-3.15554 8.661339,-16.19336 18.550807,-31.96262 29.895113,-47.04514 2.216774,-2.94725 4.585565,-5.81836 6.878348,-8.72753 1.717309,-1.92458 5.811843,-6.98574 8.700853,-8.96864 0.431274,-0.29601 1.252775,-0.77434 1.615632,-0.42368 2.50981,2.42549 0.128402,5.47948 -1.009147,7.68401 -1.158154,2.24446 -2.500647,4.42412 -3.750969,6.63618 -7.506231,12.29952 -15.97281,24.19384 -24.065426,36.24328 -5.069084,7.54757 -5.464798,8.22635 -10.083793,15.38361 -7.597289,12.14655 0.0807,-0.17128 -4.815303,7.76936 -0.124596,0.20208 -0.148819,0.71533 -0.389241,0.59987 -2.249026,-1.08006 -0.317976,-2.61197 0.334875,-3.85546 0.97784,-1.86249 1.927615,-3.73449 2.891423,-5.60173 11.567613,-21.94944 25.478453,-43.14987 42.206607,-62.83977 2.865004,-3.37227 6.001889,-6.5889 9.002834,-9.88335 3.692553,2.34775 5.342644,-8.31689 9.899701,-7.7759 1.22192,0.14506 2.035314,1.55954 1.928204,2.55196 -0.217192,2.01234 -1.724696,3.79966 -2.810205,5.62001 -3.285998,5.51048 -9.112332,13.31036 -12.767593,18.38055 -12.743074,17.32885 -26.149513,34.37927 -37.64194,52.28589 -1.386975,2.16107 -2.666026,4.36612 -3.999038,6.54919 -1.531926,2.81778 -2.690046,4.66519 -3.780257,7.45061 -0.122489,0.31294 0.182578,0.94059 -0.222882,0.96795 -0.46656,0.0315 -0.827341,-0.51815 -0.861452,-0.89477 -0.03405,-0.37598 0.487734,-0.64461 0.691286,-0.98397 0.435208,-0.72558 0.815403,-1.47181 1.223105,-2.20772 0.645663,-1.56515 1.286255,-3.13168 1.936992,-4.69547 2.605527,-6.26138 4.918962,-11.9366 7.974249,-18.14401 4.177072,-8.48651 8.307078,-15.97619 13.679265,-24.02833 2.353436,-3.52747 5.030846,-6.90795 7.546268,-10.36192 3.348852,-3.79515 7.212641,-8.89098 11.857978,-12.05195 0.892858,-0.60754 2.09874,-1.61204 3.161102,-1.22023 4.462364,1.64576 0.131841,8.3577 -0.357649,9.38058 -1.483591,3.10024 -3.335754,6.07739 -5.003628,9.11608 -2.392268,3.72985 -4.686214,7.50179 -7.176801,11.18954 -5.10389,7.55717 -11.525525,16.22138 -17.165091,23.53749 -4.384187,5.68753 -9.520048,12.09773 -14.341966,17.64388 -1.426753,1.64105 -2.952724,3.22449 -4.429087,4.83675 1.357076,3.00353 -4.226769,2.18351 -4.2591,0.99194 -0.03591,-1.32346 1.207992,-2.46205 1.847928,-3.68106 1.346732,-2.5654 2.722443,-5.12092 4.111718,-7.67151 9.156211,-16.81009 6.137192,-11.28759 17.470779,-30.32999 11.661652,-18.19206 24.163215,-36.11171 39.027765,-52.75112 2.031883,-2.27449 10.926823,-12.04088 15.777652,-14.51489 0.838149,-0.42747 1.983301,0.006 2.97495,0.0102 0.0058,1.91105 0.583516,3.87745 0.01741,5.73318 -1.21751,3.99091 -9.731026,17.43323 -11.347082,19.97356 -5.087079,7.99657 -12.893874,19.53927 -18.322033,27.27547 -3.215282,4.5824 -6.544518,9.11219 -9.816778,13.66828 -7.514524,10.11617 -15.17843,20.18471 -23.762192,29.74165 -1.362492,1.51697 -2.760136,3.01594 -4.248163,4.45413 -0.616886,0.59624 -1.096674,1.55897 -2.054546,1.63749 -0.800216,0.0656 -1.179012,-0.88271 -1.768518,-1.32406 0.482788,-0.87706 0.912117,-1.77453 1.448362,-2.63112 0.890222,-1.42203 1.890377,-2.79755 2.82785,-4.19969 1.427823,-2.13554 2.850536,-4.2733 4.268017,-6.41332 13.772887,-20.79334 -3.263409,4.89829 12.355184,-18.8729 2.473662,-3.76487 4.984045,-7.51397 7.476067,-11.27096 6.199797,-8.94045 12.192463,-18.03654 19.552862,-26.4111 0.964348,-1.09722 1.611559,-2.59187 3.130202,-3.14737 0.833455,-0.30486 2.325347,0.40416 2.352245,1.14197 0.06373,1.74781 -1.419945,3.30429 -2.129917,4.95645 -1.585574,2.83179 -3.100092,5.69018 -4.75672,8.49539 -5.354907,9.06762 -10.170324,16.48771 -16.138358,25.40257 -5.213185,7.78731 -13.127372,19.18525 -18.662083,26.93183 -2.592157,3.62808 -5.258553,7.22132 -7.887829,10.83197 -2.526923,3.27804 -6.434788,8.63281 -9.642042,12.02004 -0.370153,0.39092 -0.809981,1.26344 -1.333141,1.01065 -2.747842,-1.3278 0.68896,-4.45626 1.250566,-5.18247 1.004726,-1.29922 2.100343,-2.55127 3.150513,-3.8269 1.160436,-1.26418 2.322041,-2.52767 3.481307,-3.79254 1.256038,-1.37046 2.539875,-2.7247 3.764605,-4.11348 6.492272,-7.3619 12.506511,-14.99427 18.836439,-22.44631 2.612991,-3.07618 5.275626,-6.12475 7.913442,-9.18713 4.949579,-5.49698 7.869995,-8.92378 13.003331,-14.02303 1.207362,-1.19934 2.439592,-2.38677 3.775398,-3.494 0.432367,-0.35838 1.067256,-1.23686 1.504309,-0.88221 2.684489,2.17841 -2.205545,6.64619 -2.810278,7.50429 -1.870058,2.46132 -3.713312,4.936 -5.610169,7.38395 -4.012473,5.17818 -10.745057,13.59409 -14.768921,18.65277 -6.165651,7.75127 -12.289482,15.52369 -18.442058,23.28166 0.339177,-8.87823 -2.741855,6.01659 -3.959433,4.47075 -2.161679,-2.74445 1.715692,-6.69874 2.791957,-8.51082 1.111308,-1.87106 12.225114,-20.29628 12.442641,-20.65707 7.609963,-12.50618 15.255087,-25.01161 23.616564,-37.20631 1.911161,-2.78732 3.880945,-5.54935 5.925757,-8.27425 3.666888,-4.88648 2.244708,-3.70448 5.673005,-5.96204 0.432385,1.05542 1.44924,2.06152 1.29716,3.16628 -0.337955,2.45502 -6.743822,14.21764 -7.232542,15.09152 -4.617252,8.25598 -8.320386,13.98799 -13.681696,22.01992 -2.500982,3.7468 -5.10007,7.45044 -7.650104,11.17567 -6.044288,8.59544 -12.072968,17.19894 -18.412653,25.65585 -1.050224,1.40097 -2.106841,2.79912 -3.197495,4.17983 -0.367187,0.46485 -0.660706,1.71841 -1.174672,1.35517 -0.763922,-0.5399 -0.240556,-1.62692 -0.360835,-2.44037 1.308449,-1.76443 2.598481,-3.53783 3.925347,-5.2933 3.321554,-4.39446 11.458315,-14.94088 14.467734,-18.81533 4.660383,-5.99996 12.904416,-16.57891 17.782582,-22.5182 2.620261,-3.19023 5.356116,-6.31771 8.034177,-9.47657 2.993443,-3.21414 6.862051,-7.75564 10.650151,-10.74395 0.553529,-0.43667 1.253047,-1.3032 1.945428,-1.02367 3.549935,1.43321 -0.642927,6.31968 -1.061826,7.02879 -1.418623,2.40149 -3.001155,4.73771 -4.501731,7.10656 -2.081717,3.03111 -4.110305,6.08635 -6.245146,9.09333 -4.596451,6.47419 -10.677403,14.52393 -15.469294,20.87248 -6.584325,8.72325 -13.226436,17.4179 -19.89072,26.10148 -4.697085,-3.27069 -2.029898,6.60899 -5.175309,6.39605 -0.902309,-0.0611 -1.255636,-1.30011 -1.067894,-2.01455 0.496249,-1.88848 1.961041,-3.52224 2.98168,-5.26833 4.7281,-8.08879 7.432826,-12.37929 12.568797,-20.74899 7.904177,-12.71235 15.857108,-25.4206 24.608471,-37.77242 2.058615,-2.90557 4.175121,-5.78593 6.391986,-8.61474 4.024151,-5.13501 2.701255,-3.98316 6.470303,-6.52948 0.359681,1.03628 1.328245,2.05165 1.079039,3.10883 -0.491362,2.08443 -8.693006,15.06812 -8.842802,15.30335 -7.4128,11.64018 -15.501803,22.98369 -23.508164,34.36101 -5.781057,8.11101 -11.502904,16.25062 -17.382409,24.31582 -0.714408,0.97998 -1.391853,1.97954 -2.175148,2.92467 -0.05372,0.0648 -0.265023,0.11995 -0.284923,0.0436 -0.185858,-0.71264 -0.180412,-1.44917 -0.270618,-2.17375 1.144321,-1.56307 2.269951,-3.13513 3.432962,-4.68919 3.032707,-4.05241 10.57904,-13.89876 13.234329,-17.34186 3.235081,-4.1949 6.464228,-8.39291 9.738189,-12.56815 3.796228,-4.84128 7.560929,-9.69968 11.472105,-14.48107 3.93881,-4.81516 8.050239,-9.53702 12.07536,-14.30552 7.57276,-8.38984 11.981128,-13.6572 20.019387,-21.31072 1.84017,-1.75209 3.69025,-3.51965 5.83067,-5.0337 0.69628,-0.49251 2.02188,-1.50776 2.54812,-0.89312 2.86566,3.34701 -3.24049,9.91109 -4.26026,11.51683 -2.50754,3.33467 -4.93315,6.71033 -7.52263,10.004 -5.884797,7.48515 -13.848485,16.85052 -20.050878,24.09656 -8.907709,10.40655 -17.945307,20.74242 -26.980144,31.07731 -1.712763,1.9481 -3.416021,3.90167 -5.138298,5.84431 -0.907432,1.02353 -1.774764,2.07242 -2.750704,3.05409 -0.113776,0.11446 -0.436324,0.34227 -0.485387,0.20102 -0.265624,-0.76475 -0.594976,-1.62332 -0.268908,-2.37271 0.702141,-1.61371 2.163153,-2.94203 3.225418,-4.42213 1.703632,-2.37376 3.381425,-4.75953 5.072142,-7.13929 12.563286,-17.83998 23.859584,-36.26813 37.348548,-53.68105 1.878767,-2.42529 3.899682,-4.77705 5.849528,-7.16557 0.953108,4.72958 3.436523,-6.47343 5.837403,-5.17423 1.03655,0.56091 1.48958,1.82712 1.32457,2.82506 -0.32433,1.96152 -1.69197,3.71887 -2.70463,5.52133 -3.853449,6.85885 -7.255663,11.49847 -11.848564,18.2426 -2.634608,3.71831 -5.254992,7.44321 -7.903827,11.15494 -1.978524,2.77244 -13.509112,18.78785 -15.719862,21.85038 -4.56929,6.32981 -9.109793,12.67261 -13.867707,18.91158 -0.07483,0.076 -3.376233,3.87327 -1.421252,-1.28389 0.611763,-1.61381 2.034637,-2.94945 3.079239,-4.41163 1.730938,-2.42289 3.482792,-4.83607 5.247122,-7.24323 5.801305,-7.91501 9.649068,-13.00953 15.658307,-21.03829 8.691078,-11.33938 17.22313,-22.77727 26.706584,-33.70543 2.13514,-2.46042 4.33445,-4.8867 6.63507,-7.2481 4.1364,-4.24564 2.48998,-3.46708 6.28785,-4.61024 0.14603,1.37996 0.87001,2.79945 0.43808,4.1399 -1.01716,3.15666 -9.26197,14.35947 -10.54461,16.04242 -5.3968,7.0812 -11.883265,14.65717 -17.998258,21.32833 -3.059732,3.33801 -6.283132,6.5764 -9.4247,9.86459 -5.075512,4.90591 -9.242222,9.18513 -14.722382,13.67981 -1.269645,1.04132 -2.567011,2.07987 -4.041012,2.92817 -0.480235,0.27638 -1.39768,0.78501 -1.706197,0.37943 -2.281426,-2.99922 1.322137,-6.80084 2.58208,-9.07112 1.67499,-2.74882 3.33538,-5.50345 5.02497,-8.24644 2.858392,-4.6405 10.359797,-16.65876 13.156707,-21.0801 3.648848,-5.76808 9.011779,-14.16175 12.915213,-19.96046 1.629838,-2.42121 3.338745,-4.80723 5.008117,-7.21084 4.041222,2.68904 1.991047,-6.30442 5.055672,-6.20131 0.85595,0.0289 1.4422,1.10754 1.29878,1.78877 -0.31987,1.51936 -1.63595,2.78723 -2.54731,4.14175 -3.743134,5.5633 -6.679756,9.22355 -10.888412,14.74543 -6.092159,7.63262 -12.300039,15.21765 -18.99984,22.51569 -1.22266,1.33185 -2.462851,2.65518 -3.780816,3.9265 -0.55602,0.53635 -1.002685,1.6903 -1.832464,1.48815 -0.941471,-0.22936 -0.739855,-1.46996 -1.109779,-2.20495 1.081146,-1.69601 2.113913,-3.41265 3.243444,-5.08801 4.337542,-6.43364 8.657669,-12.30357 13.367923,-18.61218 4.970664,-6.6574 11.140174,-14.72697 16.364799,-21.30084 2.188707,-2.75396 4.449065,-5.47042 6.673595,-8.20563 1.53877,-1.78045 3.03828,-3.58342 4.6163,-5.34139 0.70455,-0.78487 1.07528,-2.014 2.22895,-2.28441 0.69554,-0.16302 1.33046,0.93594 1.12955,1.4972 -0.48289,1.34899 -1.89493,2.35732 -2.91632,3.49434 -5.00252,5.56884 -8.05992,8.47259 -13.62386,14.05964 -8.555768,8.39458 -17.241767,16.70906 -26.297025,24.75789 -2.124012,1.88794 -4.275983,3.75603 -6.471732,5.58982 -4.03242,3.36766 -2.758387,2.57782 -5.928612,4.20091 -0.191618,-0.99519 -0.939515,-2.02235 -0.574856,-2.98554 0.749785,-1.98048 2.437786,-3.64665 3.758079,-5.42259 2.009939,-2.70362 4.088437,-5.37475 6.22959,-8.01203 5.542216,-6.82637 10.798743,-12.8517 16.943109,-19.35242 2.821787,-2.98544 5.790336,-5.87876 8.685502,-8.81814 3.793783,-3.4391 8.159554,-7.744 12.666415,-10.80108 0.85799,-0.58198 1.743,-1.47443 2.86234,-1.42424 0.96914,0.0434 2.02171,0.86415 2.07744,1.64572 0.097,1.35944 -1.01056,2.60406 -1.68537,3.85224 -1.10371,2.04152 -2.42784,4.00081 -3.64176,6.00121 -5.599096,8.47507 -11.867934,16.646 -18.393852,24.67302 -3.682551,4.52961 -7.708319,9.32204 -11.717864,13.70019 -1.23006,1.34314 -2.54317,2.63548 -3.814758,3.95324 -0.691567,0.58692 -1.07895,1.65786 -2.074703,1.76078 -0.759873,0.0785 -1.660235,-0.7813 -1.521872,-1.38904 0.297824,-1.30812 1.67857,-2.29196 2.609827,-3.38957 3.789549,-4.46647 8.153982,-8.99695 12.359559,-13.17442 2.52281,-2.50596 5.14275,-4.94725 7.714127,-7.42088 2.280811,-2.03788 8.802114,-8.20458 12.217156,-10.21416 0.74833,-0.44034 2.08908,-1.26122 2.65259,-0.66824 2.91491,3.0674 -2.35433,8.82022 -3.512644,10.4821 -2.025672,2.90633 -4.272636,5.70866 -6.408955,8.56299 -7.129013,8.99752 -14.470669,17.88822 -22.072375,26.63089 -1.630413,1.87511 -3.287628,3.73521 -4.967608,5.58166 -2.780552,3.05606 -1.715745,2.26365 -3.704098,3.58083 -0.156555,-0.76721 -0.788766,-1.56792 -0.469656,-2.30162 0.714786,-1.64344 2.254033,-2.97128 3.404133,-4.4453 1.870121,-2.39687 3.761492,-4.78293 5.656328,-7.16712 5.717243,-7.19377 10.615315,-13.34148 16.606443,-20.45724 3.016314,-3.58251 6.12544,-7.11362 9.188161,-10.67043 5.321241,-5.77674 9.041621,-10.1074 14.755211,-15.38655 1.22177,-1.12887 2.35041,-2.38761 3.90618,-3.20665 0.6328,-0.33314 2.10997,-0.63925 2.26637,-0.043 0.88385,3.36972 -3.98343,9.78071 -5.23296,11.85687 -2.15841,3.13722 -4.25759,6.30141 -6.47521,9.41164 -5.75288,8.06839 -10.497477,14.18884 -16.603953,22.12458 -7.002411,9.10006 -14.077405,18.1606 -21.246297,27.17572 -3.983996,-6.44698 -2.338622,6.78707 -4.96613,5.78322 -0.822251,-0.31413 -0.882085,-1.45229 -0.594791,-2.14858 0.695258,-1.68505 2.236292,-3.0598 3.371628,-4.58141 4.232149,-5.67204 8.511671,-11.32099 12.762748,-16.98382 8.076409,-10.66348 16.149381,-21.34373 24.970085,-31.62308 0.90575,-1.05552 8.27423,-9.78034 11.21306,-11.44059 0.67031,-0.37867 1.63654,0.0216 2.45481,0.0323 -0.53482,1.87511 -0.70664,3.84272 -1.60448,5.62535 -2.08104,4.13178 -11.26637,16.37357 -13.47372,19.25014 -6.1516,8.01666 -13.412579,16.79697 -20.001615,24.57641 -3.101204,3.66148 -6.279465,7.28012 -9.419195,10.92017 -3.881336,4.3728 -8.427459,9.64646 -12.668923,13.97758 -0.70922,0.7242 -1.127025,2.03421 -2.270018,2.07678 -0.862184,0.0321 -1.159149,-1.29533 -0.897934,-1.95882 0.676695,-1.71882 2.293732,-3.09663 3.488402,-4.621 2.025631,-2.58468 4.114461,-5.13679 6.171692,-7.7052 9.843652,-12.06479 19.577563,-24.1883 29.535512,-36.19232 5.882429,-7.09107 13.261419,-15.89156 19.521729,-22.92575 2.1058,-2.36612 4.3144,-4.67165 6.4716,-7.00746 1.18769,-1.06628 1.88874,-2.71831 3.56306,-3.19884 0.9078,-0.26054 2.21391,0.78415 2.14877,1.55953 -0.16063,1.91176 -1.69876,3.58359 -2.72608,5.31132 -6.87842,11.56807 -15.64237,22.60242 -23.89823,33.54266 -9.947523,12.81341 -19.823414,25.66391 -29.898088,38.41285 -2.276264,2.88048 -4.567204,5.75351 -6.882199,8.61386 -4.11639,5.08609 -2.968848,3.8008 -5.893557,6.88742 -0.215437,-0.73578 -0.913399,-1.48265 -0.646311,-2.20732 0.612065,-1.66066 2.080299,-3.03165 3.133697,-4.5415 1.684185,-2.41395 3.379236,-4.82296 5.079002,-7.22978 7.028208,-9.95177 14.130348,-19.86837 21.263793,-29.77122 5.521615,-7.4606 8.058993,-11.04043 13.714213,-18.14582 1.567,-1.96883 3.15073,-3.93057 4.82534,-5.84089 0.89191,-1.01746 1.44063,-2.4607 2.86868,-2.93617 0.79873,-0.26594 2.08499,0.61232 2.02295,1.30747 -0.15157,1.69839 -1.7045,3.11572 -2.55674,4.67359 -1.7407,2.66944 -3.42531,5.36318 -5.2221,8.00835 -4.873975,7.17527 -10.257845,14.55635 -15.454489,21.56632 -4.238727,5.7178 -10.490662,14.02536 -15.107012,19.75696 -1.67627,2.08124 -3.457771,4.10609 -5.186658,6.15914 -0.961222,0.99828 -1.473872,2.44287 -2.883669,2.99487 -0.652638,0.25554 -1.579079,-0.70558 -1.482116,-1.28547 0.2305,-1.37848 1.46955,-2.5198 2.32069,-3.72955 1.725218,-2.4521 3.551169,-4.85793 5.403435,-7.24898 7.064899,-9.11995 8.618539,-10.7332 16.369973,-19.86151 6.928391,-7.65594 8.975597,-10.17327 16.068436,-17.14428 1.63201,-1.60398 3.25878,-3.21942 5.06699,-4.69536 0.76239,-0.6223 1.57626,-1.83895 2.60816,-1.5694 1.13979,0.29773 1.66043,1.68301 1.48713,2.63916 -0.36693,2.02436 -1.99237,3.76301 -2.98855,5.64452 -1.84147,2.83519 -3.60461,5.70439 -5.52443,8.50559 -4.587731,6.69392 -10.701484,14.89325 -15.731484,21.3246 -4.738505,6.05867 -9.8709,12.32641 -15.104025,18.14371 -1.60515,1.78434 -3.331228,3.49582 -4.996841,5.24375 -0.864446,0.68699 -1.379855,2.07404 -2.593341,2.06102 -0.9913,-0.0109 -1.619537,-1.31967 -1.428052,-2.10423 0.474752,-1.94518 2.086389,-3.59222 3.245102,-5.34062 7.071422,-10.67018 15.187107,-20.85105 23.208703,-31.06233 6.856834,-8.33831 9.301948,-11.50297 16.221558,-19.26682 1.63432,-1.83373 3.30199,-3.64935 5.03865,-5.42084 0.78164,-0.79731 1.2724,-2.09094 2.51066,-2.27988 0.85248,-0.13007 1.7148,0.95737 1.60658,1.65167 -0.2512,1.61167 -1.70163,2.94454 -2.55247,4.4168 -1.62564,2.46104 -3.21163,4.93938 -4.87694,7.38311 -7.33145,10.75838 -15.12552,21.30742 -22.776401,31.91818 -5.54705,7.69304 -8.362515,11.65408 -13.700303,19.1319 -1.440272,2.00597 -2.868293,4.01771 -4.320821,6.01792 -0.746149,1.02749 -1.322328,2.15536 -2.275055,3.06501 -0.168338,0.16071 -0.328869,-0.35851 -0.339461,-0.56872 -0.05046,-1.00144 -0.244995,-2.05635 0.159445,-3.00405 0.904876,-2.12033 2.439502,-4.03037 3.696208,-6.03064 1.761913,-2.8044 3.572888,-5.58855 5.359335,-8.38283 6.532621,-9.85127 13.25927,-19.63503 20.727478,-29.05034 1.174196,-1.48033 7.146665,-8.91066 9.731785,-10.88014 0.42648,-0.3249 1.13777,-0.23111 1.70665,-0.34668 0.0752,1.58308 0.66881,3.20585 0.22555,4.74922 -0.77581,2.70127 -8.388313,15.51645 -9.26056,16.94921 -3.778083,6.20589 -8.585023,13.51849 -12.88597,19.53664 -1.722398,2.41009 -3.579876,4.75571 -5.369811,7.13356 -1.185994,1.38315 -2.371984,2.76628 -3.557974,4.14941 -0.349305,0.14917 -0.987374,0.76249 -1.047914,0.44746 -0.910612,-4.73816 2.226676,-7.32919 5.195978,-11.45191 6.53387,-9.07195 8.50965,-11.18041 15.879151,-20.16307 2.882076,-3.23528 5.69024,-6.51423 8.64623,-9.70584 2.38267,-2.5726 4.80659,-5.12361 7.36633,-7.58306 1.59714,-1.53459 3.18344,-3.10659 5.09294,-4.38814 0.57487,-0.38584 1.85191,-1.03019 2.16276,-0.48154 2.17907,3.84606 -2.28975,8.68023 -3.94856,11.47508 -5.73464,8.67426 -11.9754,17.12563 -18.581575,25.38514 -1.576195,1.97067 -3.190103,3.92197 -4.83683,5.85476 -2.961003,3.47536 -1.79592,2.62338 -3.975289,4.02362 0.0137,-1.08911 -0.431131,-2.24694 0.04113,-3.26732 0.979353,-2.11607 2.762364,-3.93004 4.189393,-5.87346 2.038082,-2.7756 4.102761,-5.53873 6.205352,-8.28284 4.530139,-5.91236 9.638479,-12.35177 14.443399,-18.13628 1.92221,-2.31409 3.91743,-4.58816 5.87614,-6.88225 -6.50351,10.45983 4.41055,-6.74325 5.17001,-4.73208 1.49814,3.96731 -2.00146,7.39323 -4.04335,10.60772 -4.4917,7.07116 -7.43188,11.31089 -12.19974,18.36893 -4.52014,6.46744 -6.70706,9.76966 -11.371315,15.85717 -1.132851,1.47853 -2.282081,2.95123 -3.527943,4.36937 -0.50595,0.57593 -0.853261,1.71237 -1.717536,1.60153 -0.913345,-0.11713 -1.414307,-1.24792 -1.27895,-1.98581 0.286818,-1.56359 1.623291,-2.87733 2.434937,-4.31599 4.553545,-7.45567 9.607897,-14.70332 14.873717,-21.84438 1.48758,-2.01731 2.98955,-4.02828 4.54554,-6.01176 2.99614,-3.81925 1.98126,-2.86433 4.50412,-4.88206 0.40105,0.75906 1.30088,1.45586 1.20312,2.27719 -0.16618,1.39618 -1.25292,2.61751 -1.93915,3.90626 -0.92331,1.73398 -1.90866,3.44613 -2.8884,5.15985 -2.63799,4.61426 -5.37531,9.19303 -8.07772,13.78293 -0.41318,0.69302 -0.82636,1.38602 -1.23955,2.07903 -0.0872,0.14249 -0.15818,0.56271 -0.26157,0.42744 -1.55151,-2.02979 -0.13986,-2.31084 1.48139,-4.34141 2.94424,-3.68758 3.14133,-3.90066 6.19841,-7.62259 2.47404,-2.91971 2.75409,-3.299 5.1208,-5.93364 0.44577,-0.49623 0.84406,-1.02549 1.36049,-1.47495 0.46422,-0.40404 1.37274,1.04534 1.16223,2.13365 -0.18601,0.96163 -1.14591,1.71309 -1.71888,2.56964 -1.98594,2.79965 -3.97937,5.60713 -6.24425,8.26904 -0.45504,0.5348 -0.93534,1.05599 -1.43463,1.56445 -0.22364,0.22775 -0.37995,0.70471 -0.73152,0.6415 -0.63435,-0.11404 -0.97747,-0.69104 -1.4662,-1.03657 1.88135,-2.30841 4.06558,-4.46903 6.53886,-6.38145 0.24081,-0.0979 0.47597,-0.38186 0.7224,-0.29358 0.64187,0.22993 1.3064,0.59988 1.58462,1.11999 0.23168,0.43312 -0.11582,0.94057 -0.2354,1.40233 -0.44919,1.73509 -1.3074,3.38516 -2.10393,5.02848 -1.10685,0.0692 -0.33445,1.86966 -1.25294,2.14595 -0.2494,0.075 -0.0261,-0.44381 -0.15428,-0.63194 -0.20657,-0.30301 -0.87447,-0.45548 -0.82096,-0.79857 0.0926,-0.59375 0.78594,-1.01521 1.18269,-1.5209 0.49367,-0.62921 0.99238,-1.25584 1.48857,-1.88376 0.16976,-0.20869 2.51425,-3.11616 2.84621,-3.43375 0.28557,-0.2732 0.63516,-0.85244 1.0249,-0.68253 0.8241,0.35926 1.54412,1.09086 1.63649,1.84275 0.11323,0.92219 -2.73147,6.76235 -2.86149,7.04576 -1.71673,3.12343 -2.44894,4.65456 -4.45038,7.57863 -0.48427,0.70752 -0.6656,1.74783 -1.59146,2.05683 -0.6987,0.23321 -1.93398,-0.24946 -2.00445,-0.85668 -0.13481,-1.16149 0.95359,-2.20473 1.52477,-3.27648 0.97114,-1.82224 2.06612,-3.5999 3.09919,-5.39983 3.50315,-5.55145 4.27969,-6.92688 8.02758,-12.30374 1.11793,-1.60382 2.22056,-3.21734 3.45323,-4.76551 0.65746,-0.82574 1.04346,-2.05963 2.20781,-2.34442 0.8325,-0.20362 1.99084,0.60305 2.04963,1.3031 0.11188,1.33185 -1.08159,2.52324 -1.62238,3.78487 -2.93626,5.58431 -6.35787,10.99891 -10.09957,16.25869 -1.10584,1.55452 -3.08,4.28759 -4.67869,5.83839 -0.24858,0.24114 -0.60167,0.39733 -0.9025,0.59599 -0.52433,-0.43603 -1.41717,-0.71382 -1.57298,-1.30811 -0.14641,-0.55845 0.51318,-1.06494 0.81554,-1.58102 1.23317,-2.10476 2.72655,-4.11859 4.45719,-5.9788 0.24455,-0.13425 0.4449,-0.45466 0.73362,-0.40274 0.68792,0.12373 1.40794,0.40381 1.82392,0.8627 0.3256,0.35917 0.14125,0.88375 0.1623,1.32834 0.0836,1.76396 -0.21666,3.51067 -0.50009,5.25354 -0.2642,1.17595 -0.53808,2.36633 -1.0918,3.48136 -0.0661,0.1331 -0.0659,0.42686 -0.23614,0.38562 -1.96515,-0.47594 -1.63772,-0.55676 -1.14974,-1.34348 1.90002,-2.46728 3.97329,-4.84321 6.20392,-7.12269 0.59985,-0.48828 0.26853,-0.27288 0.99579,-0.64439 0.11147,-0.057 1.11184,1.21429 1.00039,1.27136 v 0 c 0.16474,-0.24767 0.12315,-0.17824 -0.1615,0.19124 -1.83561,2.50339 -3.95217,4.88153 -6.24318,7.12515 -1.00111,0.93974 -0.68907,1.10976 -2.49114,0.0778 -0.1067,-0.0611 0.0503,-0.20716 0.075,-0.31082 0.26278,-1.10239 0.50461,-2.20804 0.70011,-3.31971 0.26142,-1.673 0.51264,-3.34108 0.7035,-5.02023 0.0367,-0.32258 -0.18945,-0.75622 0.11514,-0.96732 0.32807,-0.22737 1.99916,-0.37018 1.29761,-0.007 -1.40447,1.96251 -2.74815,3.9557 -4.22193,5.88523 -0.33706,0.44128 -0.46538,1.07741 -1.04019,1.30912 -0.64104,0.2584 -1.43315,-0.0154 -2.14972,-0.0232 0.54569,-1.35339 0.27952,-0.77725 1.53799,-2.9149 0.76407,-1.29787 1.54282,-2.5902 2.33752,-3.87607 3.34572,-5.41353 6.83982,-10.77022 10.66446,-15.97534 0.84953,-1.06249 1.31955,-2.4028 2.54858,-3.18749 0.64203,-0.4099 2.18763,-0.63183 2.45647,-0.008 0.38113,0.88437 -0.84852,1.74446 -1.34304,2.5915 -3.41644,5.85188 -7.34644,11.5065 -11.32982,17.11498 -1.30011,1.70222 -2.54673,3.43181 -3.90033,5.10669 -0.76659,0.94855 -1.2665,2.15849 -2.45655,2.75909 -0.6405,0.32326 -1.96155,0.17174 -2.21076,-0.40356 -0.31973,-0.7381 0.70537,-1.45701 1.09462,-2.17305 0.4743,-0.8725 3.93155,-6.88276 4.28317,-7.49533 0.72501,-1.26786 1.44231,-2.53861 2.17503,-3.80359 1.06666,-1.84146 0.93083,-3.28145 3.79356,-3.19774 0.28984,0.009 -0.35723,0.36937 -0.51431,0.56602 -0.4257,0.53291 -0.82193,1.08078 -1.23291,1.62117 -0.50649,0.62851 -1.01299,1.25703 -1.51949,1.88554 -0.25117,0.28663 -2.6012,3.05847 -3.15465,3.37273 -1.17023,0.66447 -2.79478,1.4699 -2.8166,-0.0814 -0.004,-0.31098 0.231,-0.59364 0.3625,-0.88598 0.1949,-0.43326 0.41095,-0.86015 0.61642,-1.29022 0.7359,-1.59458 1.48782,-3.18331 2.20749,-4.7827 0.14353,-0.31898 0.0708,-0.78426 0.43362,-0.95604 0.0212,-0.0102 2.06714,0.0775 1.37609,0.048 -2.13141,2.16338 -4.29386,4.32667 -6.70856,6.28874 -0.64027,-0.21261 -1.46917,-0.21452 -1.92082,-0.63782 -0.22819,-0.21386 0.24792,-0.529 0.40829,-0.77974 0.35461,-0.55443 0.75379,-1.08957 1.13461,-1.63258 1.97308,-2.81336 3.98242,-5.61231 6.20946,-8.30181 0.70641,-0.80354 1.1385,-1.82361 2.11925,-2.41063 0.81963,-0.49059 1.95289,-0.49981 2.96072,-0.62993 0.10793,-0.0139 0.20808,0.14233 0.17165,0.2255 -0.25626,0.58512 -0.63799,1.13048 -1.00447,1.6761 -1.49272,2.22241 -2.95855,4.01117 -4.64934,6.18322 -2.53714,3.0033 -3.8747,4.71838 -6.68489,7.53488 -1.74187,1.74575 -2.79551,3.56615 -6.04724,3.0568 -1.345242,-0.21072 2.10801,-4.39389 0.54045,-3.2871 0.5659,-1.25656 1.07989,-2.52911 1.6977,-3.76968 1.77308,-3.56032 3.72331,-6.90284 5.89765,-10.32057 0.072,-0.11309 5.2184,-7.98804 6.10099,-8.6559 0.78959,-0.5975 2.06717,-0.52014 3.10075,-0.78019 -0.73269,2.73693 -0.28286,1.57802 -2.76153,5.55084 -1.30558,2.09258 -2.66081,4.16549 -4.06334,6.21684 -4.99374,7.30391 -10.36073,14.44639 -16.076968,21.39669 -1.171795,1.3117 -1.95798,2.91729 -3.515379,3.93512 -0.793362,0.51849 -2.258977,0.88156 -3.033377,0.34474 -0.637151,-0.44167 0.405994,-1.31969 0.720521,-1.94803 0.797938,-1.59409 1.688058,-3.15818 2.611096,-4.70773 3.83898,-6.4446 6.131074,-9.6708 10.496957,-16.20901 5.41372,-7.59003 7.52009,-10.78826 13.33317,-18.01792 2.88803,-3.59181 4.50522,-7.08756 9.87616,-8.30607 0.43217,-0.098 0.001,0.72417 0.001,1.08626 -0.9717,1.53033 -1.94342,3.06065 -2.91513,4.59098 -1.74082,2.39178 -3.42682,4.81006 -5.22244,7.17533 -4.95192,6.52291 -9.25505,11.78485 -14.70386,18.07589 -0.6065,0.70024 -10.401956,11.89105 -12.512739,13.38299 -1.226596,0.867 -2.996861,1.03881 -4.495291,1.55822 -0.08652,-2.50215 -0.262656,-1.15566 2.210059,-5.00397 1.32849,-2.06753 2.721048,-4.10841 4.144502,-6.13441 5.998022,-8.537 12.412059,-16.88227 19.043679,-25.10696 3.83735,-4.64815 3.87436,-6.41113 9.41578,-8.62503 0.30852,-0.12326 -0.1922,0.54062 -0.37351,0.7767 -1.25659,1.63616 -2.59955,3.2283 -3.9296,4.82624 -5.91929,7.11151 -8.71195,10.27206 -15.03292,17.59473 -5.175176,5.93858 -11.788119,13.58697 -17.141462,19.50752 -3.515628,3.88812 -5.450604,7.55596 -11.262728,9.1259 -2.296093,0.62019 7.991961,-16.17983 2.305353,-5.55618 1.536087,-2.45416 3.043868,-4.91995 4.60826,-7.36243 3.968222,-6.19559 8.731103,-13.36447 12.869169,-19.45354 2.099753,-3.08975 4.219341,-6.17083 6.369439,-9.23797 1.610979,-2.29808 2.923519,-4.76104 4.913409,-6.85712 1.05754,-1.11398 2.72263,-1.74692 4.08395,-2.62038 0.40126,2.00007 0.18342,0.39742 -2.78467,4.70585 -1.65254,2.39882 -3.3417,4.78116 -5.03339,7.16216 -6.87721,9.6794 -13.873791,19.30451 -21.050118,28.84178 -0.899628,1.17177 -8.935931,11.8886 -11.009869,13.79979 -1.226194,1.12997 -2.663702,2.23531 -4.402265,2.77256 -0.521824,0.16126 -0.961838,-0.67442 -0.931019,-1.12445 0.08369,-1.22214 0.715245,-2.38537 1.249844,-3.5309 1.017984,-2.18134 2.26647,-4.28809 3.399706,-6.43214 1.846082,-2.98969 3.608829,-6.01381 5.538246,-8.96907 4.907636,-7.51698 10.069711,-14.66555 15.554518,-21.92266 4.698146,-6.21626 10.893623,-14.01975 15.981747,-20.1393 1.94684,-2.3415 3.97561,-4.63798 5.96341,-6.95699 1.26894,-1.31292 2.12525,-2.97352 3.80683,-3.9388 0.75976,-0.43611 2.45392,-0.54983 2.79126,0.15136 0.44838,0.93199 -0.82907,1.88926 -1.37837,2.78543 -1.22818,2.0037 -2.56412,3.9647 -3.94658,5.90191 -5.45971,7.65057 -9.10558,12.04048 -15.172888,19.7123 -8.329519,10.10968 -16.575703,20.28976 -25.585525,30.02045 -1.476722,1.59488 -2.676922,3.43346 -4.604968,4.67603 -0.795184,0.51247 -2.529049,0.96058 -3.037846,0.24955 -0.56958,-0.79597 0.94829,-1.67135 1.422439,-2.50703 1.330721,-1.88039 2.622831,-3.77889 3.992174,-5.64116 3.788802,-5.15262 10.352713,-13.64443 14.127879,-18.46761 7.591333,-9.69875 15.347064,-19.31291 23.271455,-28.83681 1.39451,-1.63656 2.44072,-3.50703 4.18355,-4.90967 0.75006,-0.60365 2.18236,-1.41655 2.9922,-0.86544 0.71278,0.48507 -0.88868,1.3236 -1.37805,1.9639 -5.95086,7.78638 -12.594253,15.20802 -19.161865,22.65787 -5.616432,6.23906 -11.744815,13.13214 -17.565563,19.28128 -2.161516,2.28347 -4.315476,4.57496 -6.619258,6.76606 -1.374656,1.30743 -2.49303,2.96906 -4.404514,3.71857 -0.773662,0.30335 -2.094156,-0.45496 -2.153424,-1.14717 -0.106504,-1.24394 1.172557,-2.30755 1.758835,-3.46131 1.396522,-2.17987 2.74377,-4.38072 4.189569,-6.53959 9.464992,-14.13308 19.94808,-27.84228 31.051052,-41.17408 2.104748,-2.52726 4.307468,-5.00054 6.461198,-7.50079 1.2976,-1.33017 2.17156,-3.02232 3.89281,-3.9905 0.71368,-0.40144 2.4317,-0.33898 2.57324,0.35345 0.24397,1.19348 -1.16006,2.23254 -1.82282,3.3176 -5.14014,8.41527 -11.17044,16.45475 -16.919954,24.59984 -7.274357,9.91748 -14.512983,19.8591 -22.501606,29.41968 -0.220699,0.26413 -8.521778,10.08726 -10.439707,11.19859 -1.015562,0.58847 -2.477586,0.27503 -3.716376,0.41255 0.648154,-4.04901 0.139734,-2.57884 3.489635,-8.0972 1.859982,-3.06398 3.843767,-6.07944 5.887774,-9.06619 9.073646,-13.25861 19.074162,-26.09198 29.360075,-38.75497 10.745279,-13.06162 9.533139,-11.67317 19.868629,-23.93243 2.31862,-2.7502 4.60897,-5.51646 6.98647,-8.23375 1.3257,-1.51518 2.31995,-3.30864 4.12109,-4.46133 0.70782,-0.45298 2.60875,-0.63366 2.70836,0.0906 0.18935,1.37698 -1.45193,2.51124 -2.17789,3.76687 -1.76173,2.50953 -3.45528,5.051 -5.28521,7.52858 -5.72432,7.7503 -12.29956,15.98743 -18.49792,23.4346 -10.055867,12.08185 -20.58426,23.90827 -31.676338,35.38615 -2.436615,2.41498 -4.791414,4.8852 -7.309839,7.24494 -1.560732,1.46241 -2.880116,3.20646 -4.92009,4.21445 -0.948904,0.46888 -2.732747,0.61933 -3.334207,-0.13583 -0.630792,-0.79199 0.589163,-1.83319 1.088218,-2.68411 2.724525,-4.64553 7.640293,-10.80859 10.725438,-14.89741 2.989305,-3.7082 5.933338,-7.44038 8.967915,-11.12458 6.751753,-8.19711 13.609194,-16.1497 20.577503,-24.22641 3.00601,-3.48415 6.01678,-6.96568 9.04579,-10.43686 2.22865,-2.55399 4.25867,-5.23222 6.72708,-7.63851 1.18439,-1.15461 2.77955,-1.98915 4.16932,-2.98373 3.335,-0.13749 1.55875,-0.34696 -1.94132,4.32114 -1.95025,2.60108 -3.92314,5.19118 -5.90949,7.77443 -5.42755,7.05857 -10.78324,13.90631 -16.396675,20.87866 -2.880181,3.57742 -5.817422,7.12475 -8.726134,10.68712 -5.452567,6.34487 -8.787022,10.50505 -14.619014,16.35652 -1.465719,1.47062 -2.713781,3.17536 -4.638199,4.24825 -1.003184,0.5593 -2.594172,0.87987 -3.630936,0.36194 -2.537447,-1.2676 8.339452,-7.81066 3.01955,-6.79904 1.625018,-2.48759 3.189421,-5.00157 4.875055,-7.46279 12.061775,-17.61155 25.934542,-34.35892 39.645913,-51.14759 1.77945,-2.15388 3.32998,-4.44293 5.33833,-6.46163 0.93613,-0.94096 2.17554,-1.67399 3.42069,-2.3425 0.29939,-0.16075 1.20208,-0.34288 1.07535,-0.0714 -0.62453,1.33802 -1.80465,2.46175 -2.75452,3.66884 -4.98995,6.34114 -7.68755,9.41129 -13.22526,15.98591 -8.848141,10.30983 -17.683634,20.61633 -27.156669,30.56374 -2.175421,2.28437 -4.383682,4.54957 -6.666486,6.76471 -1.433393,1.39091 -2.658628,2.99188 -4.477853,4.04936 -0.984198,0.57208 -2.371372,0.4141 -3.55706,0.62115 0.07407,-2.20212 -0.130945,-1.284 1.98936,-4.55211 1.31146,-2.02139 2.715833,-4.00392 4.166061,-5.9627 6.790352,-9.17147 14.300733,-17.9813 21.94308,-26.69923 2.407783,-2.69972 4.80686,-5.40452 7.223351,-8.09919 3.301795,-3.68189 3.937326,-5.93289 8.798236,-7.43449 0.49662,-0.15342 -0.74774,0.61132 -1.08996,0.93962 -3.70039,3.54982 -7.203197,7.23197 -10.976809,10.73298 -7.071595,6.6604 -14.132101,13.33479 -21.656959,19.66956 -1.178211,0.99188 -2.10586,2.29442 -3.638933,2.89269 -0.74995,0.29265 -2.132934,0.10159 -2.410794,-0.53185 -0.319499,-0.72841 0.843005,-1.38767 1.26451,-2.08152 1.019826,-1.4197 2.010738,-2.85317 3.059477,-4.25913 5.661874,-7.59031 11.683931,-15.00166 17.650012,-22.43672 2.223636,-2.77113 4.437738,-5.54726 6.66345,-8.31733 1.969317,-2.45096 3.947751,-4.89715 5.921624,-7.34573 1.495192,-1.85015 2.975982,-3.7079 4.485562,-5.55043 0.79531,-0.97072 1.34319,-2.12281 2.42885,-2.88898 0.51641,-0.36443 1.93157,-0.80725 2.03315,-0.25992 0.13868,0.74721 -1.17747,1.17546 -1.75253,1.77186 -3.66734,3.80348 -7.249646,7.66002 -10.938702,11.44996 -8.697645,9.23983 -17.313995,18.53003 -26.024044,27.76206 -2.381715,2.52445 -4.763356,5.04933 -7.197449,7.54107 -1.59863,1.63649 -2.922311,3.50178 -4.89955,4.84245 -0.970733,0.65819 -2.415404,0.62422 -3.623107,0.93634 1.52157,-2.51094 0.851671,-1.59178 4.14441,-5.10177 1.888797,-2.01342 3.82414,-3.99871 5.791162,-5.96279 8.466488,-8.4539 17.295547,-16.67096 26.24817,-24.79028 4.445952,-3.9068 10.46935,-9.30449 15.26496,-13.17276 1.38774,-1.11939 2.51986,-2.58743 4.311,-3.23456 0.88522,-0.31985 2.44485,-0.0621 2.78909,0.66931 1.37776,2.92749 -8.02226,6.11662 -4.76126,8.5731 -1.98695,2.83653 -3.92023,5.69795 -5.96086,8.50958 -5.118289,7.0521 -10.855375,14.52586 -16.401665,21.34717 -3.958392,4.86839 -10.790352,12.92635 -15.341116,17.82829 -1.439914,1.55103 -3.012526,3.01894 -4.518787,4.52842 -1.052435,0.12933 -2.338575,0.93681 -3.157306,0.38799 -0.641917,-0.43029 0.563976,-1.27147 0.946987,-1.86961 0.92961,-1.45177 1.949457,-2.86552 2.984471,-4.27012 5.736474,-7.78492 12.039124,-15.28543 18.364763,-22.76279 4.349505,-5.03994 7.864787,-9.21955 12.366871,-14.07549 1.179959,-1.27269 2.063306,-2.80923 3.652982,-3.74816 0.79865,-0.47171 2.26538,-0.72591 2.9631,-0.15954 2.13321,1.7316 -8.540549,6.35685 -3.1059,6.88137 -1.421588,2.48219 -2.815118,4.97495 -4.264769,7.44657 -9.810408,16.72643 -20.342351,33.2184 -32.528941,48.90875 -3.159489,3.84379 -2.764785,5.28077 -7.516885,6.43083 -0.256703,0.0622 0.235791,-0.39026 0.389547,-0.56731 0.981322,-1.13001 1.999061,-2.23921 3.012737,-3.35047 4.702549,-5.15532 8.316844,-9.01204 13.209044,-14.27397 9.379911,-10.14613 18.714054,-20.31545 27.753797,-30.6619 2.52456,-2.88948 5.00962,-5.80136 7.48679,-8.71741 1.73231,-2.03924 3.10503,-4.30072 5.14142,-6.14815 1.0297,-0.93416 2.59595,-1.36588 3.89393,-2.04882 -1.08786,2.31276 -0.37315,0.91691 -3.5396,5.22485 -1.86595,2.53862 -3.76724,5.06027 -5.6687,7.58168 -8.578067,11.37482 -17.250825,22.70569 -26.269785,33.85759 -7.586378,9.23404 -15.073158,18.55109 -23.468689,27.33038 -1.491277,1.55944 -3.972833,5.53448 -7.749924,4.7293 -0.556836,-0.1187 -0.04955,-0.92822 -0.07431,-1.39233 0.577151,-1.34122 1.055285,-2.71288 1.731452,-4.02365 2.637313,-5.1125 6.550928,-11.23066 9.705695,-15.97566 7.460842,-11.22166 15.557989,-22.1603 23.883108,-32.97572 9.730746,-12.47526 4.946648,-6.31299 13.52356,-17.40606 0.742023,-0.9597 3.368663,-6.29863 6.844953,-6.10201 2.64901,0.14985 -14.792104,10.32767 -3.51096,5.76781 -6.39645,9.67108 -12.853908,19.31284 -19.500093,28.87441 -5.413306,7.78789 -10.646462,15.25195 -16.465394,22.84167 -2.38059,3.10504 -4.904006,6.13736 -7.35601,9.20604 -2.023469,2.27622 -3.97594,4.59462 -6.07041,6.82869 -2.148958,2.29218 -3.946765,5.24543 -8.115235,5.23416 -0.465817,-10e-4 -0.442361,-0.7305 -0.330349,-1.09519 0.842257,-2.74215 4.788065,-8.14555 5.954278,-9.90907 2.231886,-2.96547 4.402528,-5.96151 6.695668,-8.89641 15.044792,-19.25533 31.884981,-37.53661 48.520215,-55.9027 2.44417,-2.68891 5.24041,-7.52839 10.13711,-8.54889 0.59312,-0.12362 -0.49341,0.9075 -0.80969,1.33065 -7.05753,9.44135 -15.09777,18.38359 -22.551697,27.61587 -9.443495,11.15479 -14.634219,17.36248 -24.253417,28.41949 -3.537611,4.06639 -7.127543,8.10302 -10.704744,12.14681 -5.705877,6.45013 -9.24886,10.57772 -15.143789,16.5941 -1.454583,1.48455 -3.009598,2.90326 -4.514395,4.35488 -1.283606,0.42361 -2.465501,1.21744 -3.850816,1.27081 -0.489699,0.0188 -0.604809,-0.70878 -0.546332,-1.10138 0.172511,-1.15816 0.702046,-2.26851 1.210927,-3.3604 0.962734,-2.06571 2.0481,-4.09486 3.19706,-6.0977 4.110451,-7.16522 7.471862,-11.99859 12.162531,-19.12053 2.677429,-3.85687 5.30927,-7.73455 8.032282,-11.57062 4.249794,-5.98691 11.91094,-16.39427 16.436624,-22.405 2.183466,-2.89995 4.382888,-5.7924 6.631261,-8.6599 1.482378,-1.89058 2.665118,-3.97975 4.560039,-5.61312 0.897496,-0.77361 2.367279,-0.91888 3.550921,-1.37831 -1.396025,3.4231 -0.722832,1.98869 -3.819703,7.24671 -1.7599,2.98805 -3.561232,5.96027 -5.385945,8.92292 -7.851774,12.74834 -16.050872,25.35589 -24.592357,37.81264 -5.13961,7.14289 -9.309736,13.24886 -14.925557,20.03115 -1.398548,1.68904 -2.543179,3.60819 -4.480109,4.90614 -0.856728,0.57409 -2.501585,0.93051 -3.317954,0.31936 -2.347562,-1.75745 8.347782,-6.85206 3.388733,-7.25212 1.560075,-2.4367 3.059361,-4.89934 4.680225,-7.3101 11.270721,-16.76321 24.291141,-32.70332 37.018289,-48.75541 1.802045,-2.22821 3.587783,-4.46505 5.406137,-6.68462 0.20321,-0.24804 3.24981,-5.71484 6.175045,-4.75803 0.568717,0.18602 -0.499579,0.90588 -0.80086,1.33711 -2.38793,3.41792 -6.320514,8.46821 -8.61192,11.47196 -8.346718,10.80124 -16.646145,21.62467 -25.539237,32.14271 -5.01494,5.93127 -10.758444,12.48854 -16.39959,18.12458 -1.684624,1.68309 -3.537277,3.25213 -5.305916,4.87818 -1.328674,0.22924 -2.72577,1.09729 -3.986023,0.68769 -0.732845,-0.2382 0.0095,-1.29469 0.253401,-1.90086 0.627257,-1.55941 1.492843,-3.05141 2.338297,-4.54228 1.32121,-2.3298 2.733989,-4.62552 4.159083,-6.91516 5.11353,-8.21571 7.071477,-10.97534 12.678129,-19.34517 7.4382,-10.86769 14.918589,-21.71545 22.212037,-32.64704 1.885086,-2.8254 3.74169,-5.66312 5.622391,-8.49043 1.262132,-1.89739 2.157287,-3.99014 3.806089,-5.68362 0.808593,-0.8305 2.229748,-1.10723 3.344623,-1.66085 -0.906441,3.0377 -0.472815,1.90958 -3.059636,6.64761 -1.575734,2.88612 -3.225191,5.74602 -4.898909,8.59603 -7.40479,12.60884 -15.282654,25.03416 -23.531564,37.29699 -5.679457,8.07464 -8.582549,12.52193 -14.607415,20.0261 -1.584693,1.97378 -4.116174,6.78045 -8.531627,6.58959 -2.343648,-0.10128 7.666999,-9.45112 2.219974,-5.38932 1.348695,-2.11407 2.630241,-4.25691 4.046083,-6.34221 8.499081,-12.51782 18.382234,-24.48149 28.809072,-36.00169 2.135038,-2.35891 4.364382,-4.66135 6.546575,-6.99203 1.354848,-1.31098 4.247466,-5.87904 8.031364,-5.0842 0.551418,0.11583 -0.270741,0.90272 -0.537558,1.3088 -0.874007,1.33021 -1.880133,2.60173 -2.870337,3.87787 -1.639416,2.11282 -3.314415,4.20785 -5.017475,6.28768 -2.256952,2.75624 -4.574617,5.47984 -6.861926,8.21975 -7.143576,8.22046 -8.643492,10.10803 -16.132668,18.08625 -6.505223,6.93003 -13.501388,13.54981 -19.867028,20.56597 -1.143393,1.2179 -2.269597,2.44644 -3.43018,3.65372 -1.13452,1.18018 -3.046655,4.31923 -6.026638,3.31793 -0.575396,-0.19335 -0.01156,-1.02449 0.188734,-1.50056 1.504251,-3.57419 5.686181,-10.15884 7.315802,-12.87837 2.380666,-3.70393 4.71515,-7.42741 7.141996,-11.1118 13.342627,-20.25648 27.629622,-40.11142 42.630611,-59.5963 1.137903,-1.32535 1.868998,-2.95302 3.413712,-3.97607 0.631688,-0.41837 2.362201,-0.5625 2.449377,0.093 0.171485,1.28941 -1.254874,2.38946 -1.964464,3.55314 -1.3762,2.25687 -2.837177,4.47961 -4.29062,6.70476 -5.327988,8.15689 -7.926149,11.89713 -13.579009,20.22397 -10.024986,14.28597 -19.902636,28.73259 -32.162025,41.88024 -0.790447,-0.0716 -2.023721,0.36217 -2.371341,-0.21488 -0.396286,-0.65782 0.614595,-1.3795 1.015726,-2.03541 1.005042,-1.6434 2.100627,-3.25012 3.197986,-4.85464 6.99663,-10.23021 14.442583,-20.25713 21.541533,-30.44047 9.611307,-13.52809 19.241575,-27.04413 29.062037,-40.47445 2.651023,-3.62551 5.336568,-7.23454 7.986508,-10.86055 1.911301,-2.61531 3.547371,-5.37138 5.697137,-7.86333 1.058122,-1.22655 2.576834,-2.14744 3.865249,-3.22117 -2.684132,0.58126 -0.319115,0.0305 -4.377349,5.29017 -2.663315,3.45179 -5.291791,6.92115 -7.896305,10.40201 -13.013893,17.39274 -25.625048,34.9776 -38.274076,52.54362 -4.027694,5.61951 -8.040813,11.24584 -12.083081,16.85855 -3.606083,5.00706 -10.010387,14.04988 -14.460772,19.47517 -0.878843,1.07136 -1.532634,2.38571 -2.873339,3.0792 -0.651363,0.33693 -2.051571,0.17753 -2.261336,-0.42322 -0.295947,-0.84758 0.841636,-1.62499 1.262453,-2.43748 1.142003,-1.74123 2.247866,-3.49819 3.426007,-5.22368 12.092505,-17.71052 25.645973,-34.73842 38.301841,-52.18365 2.02173,-2.84213 4.086761,-5.66447 6.065188,-8.52636 0.617928,-0.89385 2.868263,-6.13366 5.856689,-6.79685 0.757047,-0.168 -1.223834,0.81164 -1.699589,1.31544 -3.40184,3.60236 -6.965446,8.72187 -9.703221,12.39632 -7.125626,10.51292 -7.596531,10.93393 -14.35962,22.10772 -5.866068,9.69176 -11.142282,19.59562 -16.848898,29.3459 -0.90965,1.5542 -1.879489,3.08504 -2.819233,4.62757 -0.574468,0.78181 -1.065319,1.60775 -1.723404,2.34545 -0.99985,1.1208 -2.074108,2.33191 -4.024537,0.95179 -0.477304,-0.33772 -0.380861,-0.99863 -0.350274,-1.51017 0.1622,-2.71255 1.571502,-5.683 2.49965,-8.16827 1.121732,-2.30456 2.145471,-4.64174 3.365195,-6.91367 3.312604,-6.1703 7.653656,-13.0873 11.604093,-18.93127 7.852932,-11.61702 16.534604,-22.85625 25.518545,-33.92133 9.838585,-11.96764 5.600884,-6.88357 14.501591,-17.4729 1.312416,-1.5614 2.315902,-3.32532 3.940118,-4.68264 0.664989,-0.55572 2.306518,-1.5582 2.67472,-0.84524 1.636171,3.16814 -15.352095,4.92089 -6.879937,8.67269 -18.240654,23.56293 -36.135762,47.31291 -52.843838,71.60909 -1.313803,1.78239 -2.581213,3.58757 -3.941412,5.3472 -1.144862,1.48104 -2.051621,3.79269 -5.010985,2.82828 -0.464534,-0.1514 -0.334332,-0.79153 -0.271209,-1.19242 0.404729,-2.57035 2.41656,-6.32201 3.389548,-8.43723 1.316065,-2.40074 2.560987,-4.82767 3.948195,-7.2022 8.952076,-15.32361 19.963773,-29.77196 30.426297,-44.43446 1.485109,-2.08847 2.989521,-4.1681 4.455327,-6.26544 0.974915,-1.39494 1.595382,-2.98091 2.866535,-4.21096 0.657282,-0.63603 1.753444,-0.87834 2.707895,-1.18321 0.158151,-0.0505 -0.114116,0.25962 -0.194754,0.38043 -0.744253,1.11499 -1.5151,2.21832 -2.278519,3.32486 -1.440908,2.08851 -2.889629,4.1735 -4.334442,6.26026 -7.156185,10.2819 -14.370247,20.53686 -21.587111,30.79113 -1.897672,2.69637 -10.657882,15.15555 -13.083505,18.52913 -1.360752,1.89254 -2.764411,3.76481 -4.146617,5.64721 -0.913149,1.06474 -1.723158,2.19213 -2.739445,3.19425 -1.163213,1.14699 -2.554823,2.55836 -4.480871,0.8885 -0.4514576,-0.3914 -0.27698,-1.06943 -0.174473,-1.59758 0.21071,-1.08567 0.624944,-2.14516 1.100726,-3.17487 0.788331,-1.70612 1.789024,-3.34341 2.683536,-5.01512 1.507536,-2.26988 2.942763,-4.57198 4.522608,-6.80965 4.450918,-6.30419 9.289083,-12.43099 14.211333,-18.49944 8.575527,-10.57243 17.561581,-20.92104 26.613468,-31.22999 2.289881,-2.57993 4.566376,-5.16763 6.869645,-7.73979 1.389666,-1.55191 2.492992,-3.30971 4.209,-4.63224 0.667539,-0.51448 2.457999,-1.38174 2.648883,-0.65314 0.266922,1.01883 -1.439544,1.72914 -2.137463,2.60521 -4.442979,5.57711 -8.226467,10.52117 -12.6579,16.24733 -9.683718,12.8424 -19.287224,25.71936 -28.756599,38.66553 -2.548213,3.48383 -5.055185,6.98727 -7.61704,10.46457 -1.755966,2.38345 -3.199738,4.94536 -5.336161,7.11732 -1.236767,1.25734 -3.094893,2.01813 -4.642339,3.02719 -0.138034,-0.18467 -0.465308,-0.34237 -0.414103,-0.55402 0.444352,-1.83662 3.672684,-7.62623 4.140183,-8.45206 4.937801,-8.72257 10.574852,-17.17387 16.31171,-25.56664 2.187575,-3.08568 4.342422,-6.18661 6.562726,-9.25704 3.818641,-5.28077 6.779871,-9.1649 10.67832,-14.25263 0.903596,-1.17925 1.521445,-2.54199 2.728536,-3.52886 0.55761,-0.45588 1.572692,-0.85901 2.277138,-0.56359 0.498976,0.20925 -0.653947,0.73813 -0.980921,1.10718 -12.575906,16.11738 -23.818474,32.87381 -35.587282,49.37515 -1.936938,2.66653 -3.841194,5.34866 -5.810814,7.99956 -3.1580364,4.25038 -2.5224945,5.13648 -7.4221477,6.62772 -0.1591937,0.0485 -0.3300722,-0.20598 -0.2892828,-0.3392 0.2742663,-0.89588 0.7306895,-1.75139 1.1882383,-2.59715 0.9263649,-1.71237 1.9733757,-3.38062 2.9600635,-5.07092 1.5562684,-2.43948 3.0784027,-4.89332 4.6688057,-7.31843 9.801807,-14.94619 20.46888,-29.53176 32.034164,-43.63473 0.55036,-0.6444 2.997445,-5.35961 6.034205,-4.40946 0.495293,0.15497 -0.373405,0.80337 -0.60088,1.19059 -0.685856,1.1675 -1.409117,2.3206 -2.137697,3.47114 -1.223056,1.93141 -2.462023,3.8563 -3.716998,5.77433 -1.673052,2.557 -3.377952,5.10037 -5.066929,7.65055 -4.17121,6.30749 -7.333158,11.14856 -11.623251,17.39859 -1.705293,2.48436 -3.403353,4.97283 -5.191845,7.41883 -1.323314,1.80981 -2.68283,3.60459 -4.1413,5.34552 -0.85565,1.02135 -1.522718,2.24756 -2.793507,2.93233 -0.862609,0.46482 -2.065142,0.16145 -3.097714,0.24217 -0.103432,-0.47433 -0.398171,-0.94662 -0.310304,-1.42299 0.476027,-2.58077 3.076546,-7.09621 4.21108,-8.98277 5.688056,-9.45845 12.698585,-18.35513 19.769415,-27.16486 8.264644,-9.94908 9.222842,-11.23019 17.716676,-20.95362 2.508721,-2.87189 11.146861,-12.58713 14.306883,-15.95216 1.168061,-1.24385 2.100019,-2.70013 3.636519,-3.64824 0.615867,-0.38003 1.550652,-0.0207 2.325976,-0.0309 -4.531979,6.58473 -9.449887,12.9952 -14.333141,19.41268 -9.191254,12.07898 -18.501081,24.10047 -28.073301,35.98595 -4.077679,4.95073 -8.542533,10.56059 -13.004957,15.40189 -1.188366,1.28927 -3.602792,4.49649 -6.436275,4.5687 -1.851436,0.0472 -0.811878,-3.15353 -0.809649,-3.17063 0.554815,-1.29876 1.009603,-2.62817 1.664446,-3.89626 2.207492,-4.27475 5.272958,-8.86518 8.125886,-12.81655 6.439448,-8.91879 13.707961,-17.42612 20.887373,-25.96012 3.974933,-4.71014 8.793299,-10.45039 12.881628,-15.18777 1.498499,-1.7364 3.643187,-5.82238 7.447902,-5.85261 2.551469,-0.0203 -14.740936,11.90606 -3.182586,5.61509 -6.060002,9.23104 -12.236773,18.40293 -18.587288,27.50677 -4.226229,6.05856 -8.419986,12.0208 -12.875403,17.9648 -1.344157,1.79325 -2.758529,3.55165 -4.137794,5.32746 -0.782655,0.91998 -1.403731,1.94454 -2.347966,2.7599 -1.17135,1.01148 -2.109015,1.53835 -2.944772,0.26859 -0.383623,-0.58283 0.116195,-2.12093 0.247222,-2.48097 0.284225,-0.78095 0.690971,-1.52942 1.036457,-2.29412 0.593113,-0.99977 1.13305,-2.02121 1.779341,-2.99931 4.268911,-6.46048 10.031961,-12.47923 15.240049,-18.45894 1.809912,-2.07807 3.603901,-4.16513 5.405851,-6.24769 1.856318,-2.25292 3.75626,-4.48287 5.568951,-6.75877 3.682555,-4.62362 6.688107,-8.64248 9.927749,-13.45578 1.243529,-1.84758 2.380454,-3.74054 3.570681,-5.61082 0.759676,-1.35078 1.409465,-2.74538 2.279031,-4.05235 0.360022,-0.54109 0.92657,-0.97466 1.389853,-1.462 1.601669,-0.74067 -0.05006,-0.0206 -2.301638,2.3601 -1.656822,1.75186 -3.243095,3.54728 -4.796111,5.35995 -5.005962,5.84294 -9.740149,11.80796 -14.427403,17.82055 -2.733075,3.50586 -5.407594,7.0412 -8.111391,10.56179 -4.705962,6.19158 -9.365318,12.37312 -14.170267,18.51357 -1.074958,1.37374 -6.210364,7.89156 -8.095545,9.94715 -0.611982,0.66729 -1.026837,1.64618 -2.010706,1.88953 -0.697633,0.17254 -1.2392768,-0.62164 -1.8589146,-0.93246 0.1458846,-0.64642 0.2061042,-1.30931 0.4376536,-1.93925 1.208776,-3.28851 3.425902,-7.38369 5.082517,-10.35647 5.00563,-8.98258 10.65474,-17.71688 16.536589,-26.34344 3.086365,-4.38977 7.074268,-10.18486 10.456132,-14.58718 0.860499,-1.12014 1.459207,-2.45602 2.732157,-3.28204 0.595869,-0.38666 2.068104,-0.56882 2.294179,0.0205 1.025195,2.67217 -7.793644,4.92381 -4.422983,7.59551 -1.578639,2.47046 -3.127927,4.95327 -4.735915,7.41138 -4.115258,6.29096 -7.934115,11.90536 -12.326111,18.08408 -3.253361,4.57686 -6.900863,9.56705 -10.481689,14.03896 -0.95603,1.19394 -1.991234,2.3454 -2.98685,3.5181 -0.487901,0.50818 -0.859465,1.1055 -1.463705,1.52454 -1.1589075,0.80369 -2.2976187,1.41916 -2.9404602,-0.0945 -0.3127177,-0.73634 1.0324864,-3.21204 1.112453,-3.36318 0.5959528,-1.12646 1.2945921,-2.21575 1.9418892,-3.32361 0.979839,-1.44102 1.913812,-2.90296 2.939518,-4.32307 2.758889,-3.81974 5.662766,-7.37633 8.677716,-11.07546 5.248616,-6.4397 10.682696,-12.78139 15.748059,-19.31762 3.739863,-4.95301 4.008707,-5.13593 7.123738,-9.83033 1.800457,-2.71331 0.894664,-2.80624 3.510632,-3.82048 0.28417,-0.11018 0.990631,-0.44743 0.912457,-0.20107 -0.263591,0.83074 -1.040366,1.49572 -1.56055,2.24358 -4.693193,6.68556 -9.472832,13.32851 -14.292542,19.95539 -4.363628,5.99979 -7.914915,10.90577 -12.415729,16.79269 -1.574129,2.0589 -3.204426,4.08953 -4.806638,6.13429 -1.125946,1.33141 -2.245599,2.66631 -3.377839,3.99425 -0.628451,0.73706 -1.235665,1.48692 -1.904162,2.2007 -0.487997,0.52106 -0.839193,1.20595 -1.5619495,1.50023 -1.3280738,0.54072 -3.2799966,0.84762 -3.0781308,-0.6937 0.1047635,-0.79993 0.5140737,-1.55439 0.7711105,-2.33159 0.7128715,-1.38229 1.3632709,-2.78664 2.1386144,-4.14687 2.5403164,-4.45664 5.5771804,-9.01659 8.5246634,-13.279 5.459111,-7.89454 11.236385,-15.6494 17.337637,-23.23181 2.301002,-2.71768 3.242121,-5.6246 7.640361,-6.12427 0.385468,-0.0438 -0.08421,0.63442 -0.241842,0.92149 -0.697288,1.26995 -1.507985,2.49788 -2.310392,3.72679 -2.999306,4.59348 -6.243885,9.16056 -9.393947,13.67954 -5.15187,7.09436 -6.481377,9.03816 -11.753228,15.87404 -1.456016,1.888 -2.929137,3.76787 -4.45005,5.62228 -0.872156,1.06339 -1.810827,2.09035 -2.727504,3.1291 -0.351692,0.39853 -0.55329,0.93642 -1.077436,1.18253 -0.550658,0.25855 -1.262193,0.14153 -1.8932886,0.2123 -0.1230193,-0.20692 -0.3127816,-0.3958 -0.3690387,-0.62075 -0.1699189,-0.67942 0.204636,-1.82973 0.3869886,-2.37666 0.9915679,-2.97399 2.6036807,-5.77648 4.2288407,-8.55152 2.492329,-3.91952 3.146443,-5.02891 5.926649,-9.03364 5.135076,-7.39675 10.701474,-14.59063 15.987536,-21.91627 0.983992,-1.35391 1.95853,-2.71231 2.951977,-4.06171 0.921206,-1.25129 1.701485,-3.75281 4.4589,-2.93808 0.385375,0.11386 -0.21637,0.64207 -0.3907,0.94176 -1.433672,2.46453 -3.664084,5.50194 -5.227592,7.73648 -1.572195,2.14546 -3.113423,4.30587 -4.716582,6.43637 -3.264249,4.338 -7.338063,9.53595 -10.837548,13.77796 -4.028878,4.88374 -3.585169,4.21461 -7.135264,8.1833 -0.378438,0.42306 -0.742983,0.8541 -1.114474,1.28115 -0.505734,0.78454 -0.554411,0.89049 -1.122692,1.64958 -0.184272,0.24616 -0.220654,0.67834 -0.571554,0.72911 -3.0365855,0.43941 -1.793584,-0.91711 -1.266266,-1.95105 5.444551,-9.00433 12.2156,-17.42215 18.528553,-26.0352 1.162513,-1.60944 2.34388,-3.21013 3.487542,-4.82834 5.213898,-7.37735 0.407801,-0.68914 4.362268,-6.45032 0.270621,-0.39426 1.293689,-2.52619 2.723713,-1.16443 0.305029,0.29046 -0.483288,0.65395 -0.724933,0.98092 -7.338313,9.53221 -14.520515,19.14707 -22.247868,28.48007 -1.3106,1.5551 -2.630155,3.10529 -3.934366,4.66388 -0.105416,0.12598 -1.934054,2.41005 -2.247407,2.53626 -2.5488227,1.02661 -2.3707343,0.73835 -2.6450414,-0.3016 0.2178732,-0.51065 0.3829759,-1.03798 0.6536196,-1.53192 1.1715525,-2.13819 3.3684508,-5.2949 4.7089858,-7.15612 3.95553,-5.49194 8.221741,-10.83796 12.760955,-16.02762 1.255809,-1.39399 2.48592,-2.80328 3.767427,-4.18197 1.009098,-1.08563 2.424309,-3.80207 5.046942,-2.63635 0.379512,0.1687 -0.314358,0.65336 -0.520317,0.96086 -1.329279,1.98466 -3.312589,4.46202 -4.721857,6.28583 -2.674662,3.31563 -5.01024,6.25077 -7.785831,9.52442 -0.922247,1.08774 -5.375615,6.16411 -6.639898,7.60381 -0.616785,0.70236 -1.253588,1.39348 -1.85326,2.10541 -0.384038,0.45592 -0.731259,0.93133 -1.096889,1.39702 -0.02319,0.0329 -1.602212,2.30253 -1.7209644,2.35034 -0.6905581,0.27797 -1.5395419,0.20349 -2.3081499,0.1471 -0.1387548,-0.0102 -0.1438958,-0.21524 -0.1124029,-0.32472 0.2941656,-1.02243 1.8627236,-3.6835 2.1347036,-4.17922 5.9985756,-9.8179 12.5367286,-19.43009 19.6735116,-28.74088 0.911627,-0.27851 1.814733,-0.57586 2.734881,-0.83549 0.106259,-0.03 0.379925,-0.1143 0.335552,-0.0308 -0.412169,0.77512 -0.986258,1.48761 -1.50065,2.2219 -0.979201,1.39779 -1.963954,2.7933 -2.979842,4.17396 -3.939873,5.35454 -5.051616,6.67169 -9.337306,12.11982 -1.71247,2.07913 -3.398099,4.1728 -5.137409,6.23738 -1.389139,1.64892 -2.799339,3.2867 -4.2472977,4.90236 -1.7615365,1.96557 -1.9885988,3.50032 -5.1283127,2.89363 -0.9675825,-0.18696 4.6220253,-3.42016 1.1106791,-2.23459 4.1549789,-7.30406 8.7538573,-14.43075 13.4846373,-21.50183 0.722233,-1.02711 0.77449,-1.95707 2.764335,-0.94735 0.230594,0.11702 -0.126499,0.42905 -0.227168,0.63324 -0.950333,1.92737 -2.433327,3.64793 -3.719341,5.42984 -2.769782,3.45907 -5.665069,6.84909 -8.6507324,10.18852 -0.6144711,-0.15158 -1.3216007,-0.15231 -1.8434103,-0.45475 -0.1733294,-0.10046 0.1355114,-0.32718 0.2241329,-0.48379 0.2632463,-0.46523 0.5363667,-0.92718 0.8305798,-1.38017 1.9055847,-2.93401 4.049922,-5.76393 6.101717,-8.63108 2.000293,-2.64106 2.821181,-3.78445 4.884075,-6.29431 0.551147,-0.67057 0.864392,-1.54808 1.701691,-1.98534 0.680703,-0.35549 1.613669,-0.139 2.423739,-0.16906 0.04718,-0.002 0.125643,0.0402 0.106762,0.0751 -0.184476,0.34099 -0.449742,0.64968 -0.674615,0.97453 -2.30677,3.07075 -4.662168,6.11858 -7.122676,9.11098 -0.674919,0.23714 0.264263,-0.0559 -1.585044,-0.33674 -0.0878,-0.0134 -0.18066,0.22479 -0.189303,0.15307 -0.01101,-0.0916 0.126227,-0.15366 0.179422,-0.23507 0.247421,-0.3786 0.857946,-1.43021 1.017829,-1.70177 1.927983,-3.3018 3.904594,-6.58895 5.977749,-9.83232 0.61286,0.0708 1.271884,0.0116 1.838582,0.21261 0.152912,0.0543 -0.161323,0.23598 -0.241814,0.35406 -0.242739,0.35608 -0.476518,0.71619 -0.72788,1.06835 -1.294535,1.81362 -2.713856,3.56708 -4.216239,5.27295 -1.627332,1.75411 -1.376765,1.56391 -2.995634,3.04723 -0.28742,0.26335 -0.450462,0.7523 -0.884643,0.77379 -0.6428,0.0318 -1.219244,-0.36072 -1.759938,-0.6429 -0.246165,-0.12848 0.860562,-0.63623 0.285941,-0.67093 0.237618,-0.52931 0.452719,-1.04622 0.623138,-1.59252 0.04751,-0.15226 0.0988,-0.30381 0.141878,-0.45693 0.02831,-0.10067 -0.05543,-0.31127 0.07222,-0.3041 0.492309,0.0276 0.933791,0.25783 1.400685,0.38676 0.07521,-0.068 0.128403,-0.15759 0.225635,-0.20399 0.06723,-0.0321 -0.0873,0.10449 -0.128959,0.15785 -0.456049,0.58337 -1.005391,1.09939 -1.706122,1.50559 -0.590618,0.30882 -1.18722,0.59307 -1.799617,0.87204 -0.128117,0.0583 -0.244622,0.22362 -0.381217,0.17951 -0.582104,-0.18805 -1.0876221,-0.50888 -1.5865936,-0.8152 -0.041963,-0.0258 0.051627,-0.0742 0.077441,-0.11125 0.9157556,-0.62308 1.0026966,-1.71523 1.2163246,-2.5938 0.04495,-0.64362 0.108148,-1.04628 0.02723,-1.67865 -0.03067,-0.23966 -0.204016,-0.66769 -0.127736,-0.70135 0.197201,-0.0871 0.436054,-0.0884 0.652808,-0.13644 0.0678,-0.015 -0.137209,0.0249 -0.205813,0.0375 -0.626394,0.35419 -1.1405283,0.82232 -1.722529,1.22259 -0.1653719,0.11374 -0.2753919,0.36245 -0.4916896,0.34536 -0.6615609,-0.0523 -1.2543696,-0.35525 -1.8815544,-0.53289 0.050567,-0.12045 0.07861,-0.24866 0.1517024,-0.36132 0.1665327,-0.2567 0.4910399,-0.48838 0.7412787,-0.67994 0.7950864,-0.60865 1.6428794,-1.16595 2.5715759,-1.63932 0.540206,-0.26849 2.535306,-1.34088 3.13832,-1.37018 1.6804,-0.0816 2.479045,0.33377 1.541434,1.51195 -1.461556,1.15536 -2.95121,2.33932 -4.8085725,3.07589 -0.1022351,0.0702 -1.3331223,-1.09593 -1.2308885,-1.16611 z"
       inkscape:connector-curvature="0" />
  </g>
</svg>
